# xmcd
#
# Track frame offsets:
#	150
#	59064
#	78108
#	78468
#	83884
#	122565
#	144474
#	148278
#	150080
#	160453
#	172177
#	217713
#
# Disc length: 2944 seconds
# Revision: 0
# Processed by: cddbd v1.5.2PL0 Copyright (c) Steve Scherf et al.
# Submitted via: dBpowerAMP V12.0
#
DISCID=9d0b7e0c
DTITLE=Hale Dwoskin - The Inner Circle Retreat 02 CD 13
DYEAR=2007
DGENRE=Speech
TTITLE0=Banging Your Head against the Wall
TTITLE1=Release on the Gifts of Your Parents
TTITLE2=Summary of Release
TTITLE3=Extra Weight after an Operation
TTITLE4=Release on Dislikes about Your Body - Worrying
TTITLE5=Assignments - Attachment and Aversion to Yourself
TTITLE6=Sharing
TTITLE7=Sharing
TTITLE8=Sharing - What Is Experiencing
TTITLE9=Sharing - Focus on Your Solar Plexus Area
TTITLE10=Aging - Trusting Awareness
TTITLE11=Sharing - A Poem about Aging
EXTD=
EXTT0=
EXTT1=
EXTT2=
EXTT3=
EXTT4=
EXTT5=
EXTT6=
EXTT7=
EXTT8=
EXTT9=
EXTT10=
EXTT11=
PLAYORDER=
